<?xml version="1.0" encoding="utf-8"?>
<!-- Generator: Adobe Illustrator 25.4.1, SVG Export Plug-In . SVG Version: 6.00 Build 0)  -->
<svg version="1.1" id="Layer_1" xmlns="http://www.w3.org/2000/svg" xmlns:xlink="http://www.w3.org/1999/xlink" x="0px" y="0px"
	 viewBox="0 0 512 512" style="enable-background:new 0 0 512 512;" xml:space="preserve">
<style type="text/css">
	.st0{fill:#6B877B;}
	.st1{fill:#E8B95D;}
	.st2{fill:#D4836D;}
	.st3{fill:#657D9C;}
</style>
<path class="st0" d="M298.74,380.68c-11.66-18.33-25.99-34.69-33.5-55.62c-0.98-3.65-5.2-7.37-8.43-3.37
	c-18.4,36.94-50.78,70.3-59,110.83c5.55,15.52,10.82,44.6,29.22,47.76c31.18,1.76,60.4,8.01,90.46-9.06
	C345.87,432.65,315.53,416.29,298.74,380.68z"/>
<path class="st1" d="M502.42,29.16c-39.68,3.09-82.8,0.35-121.5,8.08c-30.34,34.84-41.37,82.8-54.15,126.42
	c-57.59,145.03-81.89,101.28,3.51,238.16c2.81,5.13,9.83,15.87,14.75,6.74c6.88-17.98,16.5-34.62,24.23-52.04
	C409.78,246.46,464.7,142.94,506,33.45C504.74,31.83,503.75,29.37,502.42,29.16z"/>
<path class="st0" d="M210.46,367.68c12.57-25.71,41.58-52.89,34.84-83.09c-34.27-63.7-76.62-122.63-107.74-188.22
	c-38.21-49.79-11.1-75.29-83.72-64.54C41.2,38.29-10.7,20.88,11.42,47.42c38.91,86.25,82.8,170.59,122.7,256.77
	c13.84,34.34,31.25,67,47.34,100.29C189.88,412.7,205.33,374.15,210.46,367.68z"/>
<path class="st2" d="M172.68,123.2c25.14,50.01,53.24,100.22,84.28,146.51c25.63-21.28,27.39-67.07,45.65-95.94
	c2.88-4.35,2.25-8.64-0.42-12.99c-14.68-27.74-35.26-53.17-46.21-82.17c-22.47-49.72-22.83-48.67-76.83-47.41c0,0.28,0,0.49,0,0.77
	c-12.43,2.88-48.46-7.94-51.48,6.04C136.51,69.06,157.79,94.83,172.68,123.2z"/>
<path class="st3" d="M261.38,51.01c16.65,27.88,27.88,63.77,53.8,83.65c11.24-23.88,12.92-52.6,28.8-74.73
	c3.02-6.6,14.89-17.56,6.18-23.67c-27.25-5.62-55.98-1.47-83.65-3.23C254.22,31.69,256.89,43.77,261.38,51.01z"/>
</svg>
