<?xml version="1.0" encoding="utf-8"?>
<!-- Generator: Adobe Illustrator 25.4.1, SVG Export Plug-In . SVG Version: 6.00 Build 0)  -->
<svg version="1.1" id="Layer_2" xmlns="http://www.w3.org/2000/svg" xmlns:xlink="http://www.w3.org/1999/xlink" x="0px" y="0px"
	 viewBox="0 0 100 150" style="enable-background:new 0 0 100 150;" xml:space="preserve">
<g>
	<path d="M59.94,98.25c17.42-14.39-34.7,4.55-37.22-8.32c-11.07-9.97,37.78-6.55,46.59-5.03c9.39,2.27,6.03,14.79,7.54,21.98
		c-2.18,10.18-50.83,4.02-41.45,12.67c0.69,7.69,31.25-1.36,40.24,4.13c-0.49,1.53,7.25,1.65,5.2,6.14
		c-2.81,5.76-12.64,0.78-18.03,1.69c-14.46-1.84-34.85,11.73-42.59-4.84c2.18-0.45,0.86-2.32,1.78-3.69
		c0.53,5.92,0.71-1.04,0.59-3.54c-0.16,0.12-0.33,0.25-0.66,0.5c0.15-5.19,1.93-8.61,2.98-13.05c-0.97-3.07,3.2-1.87,5.11-2.08
		c-9.98,4.28,21.88,0.56,25.7-0.32c-6.2-2.29-13.41-0.42-20.1-0.46c11.35-1.32,7.58-1.67,20.8-3.38
		C43.69,100.56,52.38,101.2,59.94,98.25z"/>
	<path d="M36.7,17.16c-0.03,0.04-0.17,0.29-0.46,0.79c3.28,0.04,10.02-0.88,3.31-0.94c33.25-4.65,34.71,36.2-6.96,36.21
		C-3.71,59.25,8.26,3.52,36.7,17.16z M48.69,26.48c1.46-4.09-13.77-3.72-15.94-2.18c-11.73,3.04-25.76,14.09-5.89,18.73
		c10.41,3.16,39.36-9.19,14.84-12.98c-6.02-0.93,3.36-0.14,5.94,0.18c-0.55-0.31-0.9-0.51-1.41-0.79c2.35,0.39,2.79-0.19,0.56-1.1
		C46.39,25.65,53.26,29.25,48.69,26.48z M36.91,18.47c0.33,1.03,1.35,0.99,3.08,0C38.96,18.47,37.99,18.47,36.91,18.47z"/>
	<path d="M75.91,55.41c2.82-6.98-1.73-18.8,2.7-4.5c1.24-6.73-1.17-14.8-3.31-21.23c-0.04,0.43-0.08,0.86-0.15,1.67
		c-1.96-5.84-4.03-12.29-1.39-13.23C90.74,16.38,88.47,53.07,90,68.29c-0.54,13.9-28.93,13.64-34.34,2.63
		C68.72,70.75,78.98,71.69,75.91,55.41z"/>
	<path d="M41.96,78.47c0.02-0.25,0.04-0.49,0.08-0.97c-6.66,4.98-8.31-3.52-10.58-8.26c-4.37-0.69-10.22,1.06-14.88-1.4
		c-2.16-0.53-8.16-7.47-4.25-6.77c-0.39-0.61-0.72-1.13-1.23-1.92c16.47,0.9,33.11-1.34,49.4-3.71c-0.17-0.03-0.34-0.07-0.63-0.12
		c0.43-0.32,0.96-0.92,1.15-0.82c4.92,2.74-0.51,1.06-1.8,2.36c2.24,1.38,5.03-1.79,5.99,2.55c-9.42-3.04,4.04,0.78,1.33,5.33
		c-2.65,6.38-26.56-4.86-21.5,9.78C44.75,75.7,42.94,77.83,41.96,78.47z"/>
	<path d="M47.51,101.1c-3.17-0.04-7.83,1.66-10.27,0.73C40.38,101.9,45.22,100,47.51,101.1z"/>
	<path d="M23.37,103.94c0.31-2.67,4.78-1.01,6.75-1.17C27.9,103.16,25.69,103.54,23.37,103.94z"/>
</g>
</svg>
