<svg xmlns="http://www.w3.org/2000/svg" viewBox="0 0 64 64">
  <g>
    <path class="current-color" d="M40.32,21.93c1.12.14,1.54-1.2,2.45-1.61s3.83-1.78,1.59-2.75C43.34,18.12,37.9,20.81,40.32,21.93Z"/>
    <path class="current-color" d="M21.58,30.08c.79-1.63-2.07-1-2.94-1.09v0c-1.1-.08-4.36,0-2.57,1.68C17.67,30.56,20,30.83,21.58,30.08Z"/>
    <path class="current-color" d="M25.35,37.21C24,35.28,23,38.09,22,38.91c-.75.62-2.47,2.3-.66,2.68A12,12,0,0,0,25.35,37.21Z"/>
    <path class="current-color" d="M21.63,20c.47.93,3.43,2.92,2.62.59-1.12-.74-1.85-2.3-3-3.16C18.64,16.81,20.79,19.22,21.63,20Z"/>
    <path class="current-color" d="M31.47,14.18c-.67,1.38.73,4.74,1.53,1.89-.13-.86.5-3.59-.35-4.32C30.79,11.16,31.62,13.13,31.47,14.18Z"/>
    <path class="current-color" d="M44,38.84c-.58-1.33-5.15-4.08-3.86-1,1.82.7,2.65,2.79,4.23,3.76C45.93,41.15,44.76,39.47,44,38.84Z"/>
    <path class="current-color" d="M33.65,41.55c-1.72-4.2-1.87,2.43-1.51,3.83.52,2.53,2.09.44,1.67-1.15C33.76,43.37,33.71,42.37,33.65,41.55Z"/>
    <path class="current-color" d="M48.29,28A12.13,12.13,0,0,0,43.6,28c-2.12,1.18.93,1.89,2.06,1.52v.07C46.78,29.61,49,29.8,48.29,28Z"/>
    <path class="current-color" d="M40.86,32.16c4.42-9.29-8.35-17.37-15.16-10C14.66,33.32,36.16,48,40.86,32.16Zm-1.32-1.74c-.89,11.79-18.91,6.65-14.19-3.72C28.19,17.7,42.28,21,39.54,30.42Z"/>
  </g>
</svg>
