<svg xmlns="http://www.w3.org/2000/svg" viewBox="0 0 64 64">
  <path class="current-color" d="M40.78,22.58c3.42-.74,5.3,2.62,7,4.54,5-.08,10,5.87,5.83,10.13-6,5.14-15.52,2.46-22.89,2.74C22.6,40.5,7.5,41.39,8.9,29.34c.83-5.5,5.51-7.5,10.37-7.68C24.26,14.28,38.36,12,40.78,22.58Zm.22,16c11.44,1.56,19.11-8.11,4.56-9.78-.87-2.59-2.74-5.29-5.83-4.25-2.46-6.69-7.48-9.9-14.37-5.89-2.32,1.74-3.87,5.94-7.31,5C9.41,22.41,7.19,36,15.94,37.51,24.13,39.33,32.72,38.3,41,38.58ZM42.68,12c2.71,1.68,5.63,5.91,4.12,9.13a13,13,0,0,1,1.34,1c2.08-3.93-.84-7.56-3-10.56,7.83-2.16,12.92,8,7.17,13.55a11.65,11.65,0,0,1,1.47.69C64.65,11.65,41.3,5.82,42.68,12Zm-1.9,10.57c3.42-.74,5.3,2.62,7,4.54,5-.08,10,5.87,5.83,10.13-6,5.14-15.52,2.46-22.89,2.74C22.6,40.5,7.5,41.39,8.9,29.34c.83-5.5,5.51-7.5,10.37-7.68C24.26,14.28,38.36,12,40.78,22.58Zm.22,16c11.44,1.56,19.11-8.11,4.56-9.78-.87-2.59-2.74-5.29-5.83-4.25-2.46-6.69-7.48-9.9-14.37-5.89-2.32,1.74-3.87,5.94-7.31,5C9.41,22.41,7.19,36,15.94,37.51,24.13,39.33,32.72,38.3,41,38.58Z"/>
</svg>
