<svg xmlns="http://www.w3.org/2000/svg" viewBox="0 0 64 64">
  <path class="current-color" d="M42.23,32.62c2,11.39-22.62,8.63-29.15,6.86C6.94,36.42,7,23.63,14.7,22.82,18,20,20.45,15.32,25.41,15.21a9.86,9.86,0,0,1,10.64,8C39,25.72,43,27.78,42.23,32.62ZM28.1,39.08c3.76-.11,9.36.35,11.12-3.8,1.46-3.29.71-8.45-3.56-8.75-2.24-3.24-1.8-9.16-7.47-9.18-4.17-.65-8.51,2.92-10.46,6C17,24.45,16.22,25.06,15,24.84c-4.48.35-4.73,7.7-3.39,11C15.37,40.65,22.75,38,28.1,39.08Zm9.28-20C35,20.19,38,21.7,39.21,22.32c2.72-.43,5.36-2.82,8.44-.71,2.65.88,2.23,3.82,3.53,5.57,6.33,3.31-.9,8.77-5.7,7.34-1.24-.1-2.74,1.13-1.32,2,1.58.48,3.15-.18,4.71,0,6.18-.2,6.87-4.74,5.85-8.81-1.38-1.81-2.74-3.14-3.5-5.38C46.92,16.12,42,21,37.38,19.11Z"/>
</svg>
