<svg xmlns="http://www.w3.org/2000/svg" viewBox="0 0 64 64">
  <path class="current-color" d="M54.5,24c-3.32-1,8.88-12.2-6.72-15-4.08-.33,4,5.51,2,9.08a3.29,3.29,0,0,0-1.43-.9,9,9,0,0,0-2.23-5.27c-.63-1.59-3-1.71-2.79-3.33,5.46-3.35,13.8.62,14.26,7.45C57.89,19,56.25,21.81,54.5,24Zm-18.45-.75a9.86,9.86,0,0,0-10.64-8c-5,.11-7.46,4.8-10.71,7.61-7.7.81-7.76,13.6-1.62,16.66,6.53,1.77,31.15,4.53,29.15-6.86C43,27.78,39,25.72,36.05,23.25ZM11.62,35.81c-1.34-3.27-1.09-10.62,3.39-11,1.21.22,2-.39,2.72-1.46,1.95-3.11,6.29-6.68,10.46-6,5.67,0,5.23,5.94,7.47,9.18,4.27.3,5,5.46,3.56,8.75-1.76,4.15-7.36,3.69-11.12,3.8C22.75,38,15.37,40.65,11.62,35.81Zm39.6-13.44c.76,2.24,2.12,3.57,3.5,5.38,1,4.07.33,8.61-5.85,8.81-1.56-.17-3.13.49-4.71,0-1.42-.92.08-2.15,1.32-2,4.8,1.43,12-4,5.7-7.34-1.3-1.75-.88-4.69-3.53-5.57-3.08-2.11-5.72.28-8.44.71C38,21.7,35,20.19,37.38,19.11,42,21,46.92,16.12,51.22,22.37ZM33.13,57.65c.11-1.3,3.19-3.48,1.19-4.16C32.32,53.82,29.46,60.19,33.13,57.65Zm-2.26-9.76a13.57,13.57,0,0,0,2.85-4.47C32.77,41.2,27.89,48.34,30.87,47.89Zm-5-4.12c-.1-1-1.69-1.1-1.87-.2,0,1.26-2.1,2.93-.78,3.9C25,47.37,25.12,45,25.91,43.77Zm10.07,7c.59,3.17,3.47-1.52,3.65-2.8C38.61,46.17,36.62,49.83,36,50.75ZM24.86,56.32c-1.51-.17-3.58,3.25-2.32,4.45C23.65,60.45,25.7,57.31,24.86,56.32Zm-4.05-5.81c-.86-1.82-2.86,2.05-3,3C19,55.68,20.53,51.59,20.81,50.51Zm6.94,3.36c.11-1.3,3.2-3.48,1.19-4.16C26.94,50,24.09,56.41,27.75,53.87ZM43,42c-.86-1.82-2.87,2-3,3C41.24,47.19,42.74,43.1,43,42Z"/>
</svg>
