<svg xmlns="http://www.w3.org/2000/svg" viewBox="0 0 64 64">
  <path class="current-color" d="M40.78,22.58c3.42-.74,5.3,2.62,7,4.54,5-.08,10,5.87,5.83,10.13-6,5.14-15.52,2.46-22.89,2.74C22.6,40.5,7.5,41.39,8.9,29.34c.83-5.5,5.51-7.5,10.37-7.68C24.26,14.28,38.36,12,40.78,22.58Zm.22,16c11.44,1.56,19.11-8.11,4.56-9.78-.87-2.59-2.74-5.29-5.83-4.25-2.46-6.69-7.48-9.9-14.37-5.89-2.32,1.74-3.87,5.94-7.31,5C9.41,22.41,7.19,36,15.94,37.51,24.13,39.33,32.72,38.3,41,38.58ZM54,14.85c1.1.31,1.73-1,2.71-1.23s4.11-1.2,2-2.53C57.61,11.49,51.75,13.33,54,14.85Zm2.48,6.59c-2.56.62.3,2.13,1.64,1.87v.08C64,24.16,60.06,20.92,56.47,21.44ZM35.64,9.9c.32,1,3,3.48,2.52,1-1-.93-1.48-2.62-2.53-3.67C33.15,6.23,34.92,9,35.64,9.9Zm4,5.67c6.24-7.6,17.24,2,11.29,9.58l1.53.78c7.37-10.1-7-20.82-14.88-11.61Zm6.74-9.95c-.52.89-.68,4.15,1,2.77.36-1.1,1.28-3.86.62-5C46.19,2.47,46.72,4.6,46.39,5.62Z"/>
</svg>
