<svg xmlns="http://www.w3.org/2000/svg" viewBox="0 0 64 64">
  <path class="current-color" d="M42,32.62C44,44,19.37,41.25,12.84,39.48,6.7,36.42,6.76,23.63,14.46,22.82c3.25-2.81,5.76-7.5,10.71-7.61a9.85,9.85,0,0,1,10.64,8C38.78,25.72,42.76,27.78,42,32.62ZM27.86,39.08c3.77-.11,9.36.35,11.12-3.8,1.47-3.29.72-8.45-3.55-8.75-2.24-3.24-1.81-9.16-7.47-9.18-4.18-.65-8.51,2.92-10.47,6-.71,1.07-1.5,1.68-2.71,1.46-4.48.35-4.74,7.7-3.4,11C15.13,40.65,22.52,38,27.86,39.08Zm9.29-20c-2.42,1.08.64,2.59,1.83,3.21,2.71-.43,5.36-2.82,8.44-.71,2.64.88,2.22,3.82,3.52,5.57,6.33,3.31-.89,8.77-5.7,7.34-1.24-.1-2.74,1.13-1.32,2,1.58.48,3.16-.18,4.72,0,6.17-.2,6.87-4.74,5.84-8.81-1.37-1.81-2.74-3.14-3.49-5.38C46.68,16.12,41.73,21,37.15,19.11Zm3.42-1.71c.8-8,13.31-10.09,14.68-1.58,1.5,2.61-2.71,7.42,0,8.78,6.69-9.84-4.1-21.92-13.78-13.6C40,12.49,36.63,17.84,40.57,17.4Zm14.61-7.34c1.13,0,1.39-1.36,2.25-1.87.63-.66,3.09-1.42,1.83-2.71C58.38,4.58,52.5,9.77,55.18,10.06ZM45.49,3.39C45,4.84,46.77,8,47.23,5.1c-.22-.85.08-3.63-.84-4.25C44.47.48,45.52,2.34,45.49,3.39ZM60.77,26.44c-.72-1.26-5.58-3.46-4-.59,1.89.49,3,2.47,4.64,3.25C63,28.51,61.62,27,60.77,26.44Zm3-11.26a12.35,12.35,0,0,0-4.66.49c-2,1.43,1.14,1.77,2.22,1.28V17C62.49,16.94,64.75,16.87,63.8,15.18ZM36.39,10.29c.57.86,3.75,2.49,2.67.28C37.87,10,37,8.5,35.68,7.78,33.05,7.49,35.47,9.63,36.39,10.29Zm-3.5,47.36c.11-1.3,3.2-3.48,1.19-4.16C32.08,53.82,29.23,60.19,32.89,57.65Zm-2.26-9.76a13.6,13.6,0,0,0,2.86-4.47C32.53,41.2,27.65,48.34,30.63,47.89Zm-5-4.12c-.09-1-1.68-1.1-1.87-.2,0,1.26-2.09,2.93-.77,3.9C24.72,47.37,24.89,45,25.67,43.77Zm10.07,7c.6,3.17,3.48-1.52,3.66-2.8C38.37,46.17,36.38,49.83,35.74,50.75ZM24.62,56.32c-1.51-.17-3.57,3.25-2.32,4.45C23.41,60.45,25.46,57.31,24.62,56.32Zm-4-5.81c-.86-1.82-2.87,2.05-3,3C18.8,55.68,20.3,51.59,20.58,50.51Zm6.94,3.36c.11-1.3,3.19-3.48,1.18-4.16C26.71,50,23.85,56.41,27.52,53.87ZM42.78,42c-.86-1.82-2.86,2-3,3C41,47.19,42.5,43.1,42.78,42Z"/>
</svg>
