<svg xmlns="http://www.w3.org/2000/svg" viewBox="0 0 64 64">
  <path class="current-color" d="M28.88,31.9c-2.29.93-3.21,3.29-3.55,5.59-1.37,1.14-.69-1.83-.45-2.48-.5-.57-1.4.85-2.1.89-1.53-.29.49-1.4.79-1.95-4-2.66-.74-2.49,2-1.35,2-.12,3.88-2.83,2.7-4.63-1.87-2.24-3.6-.93-5.7.07-1.2-.07-.66-1.4.34-1.42,3.91-1-1.19-1.68.84-2.75,2.26,1.07,1.33-.31,1.53-1.93,1.25-1.61,1,2.38,1.28,3.17.22,1.13,1.75,1.46,2.54,2.23.75.07,1.32-.75,2.1-.78,1.79-2-.95-4.06-2.47-5.29-.83-.57-.14-2.08.76-1.21,1.73,2.13,2.34,2.73,2.32-.49,1.7-1.29.06,3.09,1.45,2.74.7-.57,2.23-3.51,2.81-1.54-1,2.15-5.59,4.39-2.24,6.74,3,1.46,3.53-3.68,4.74-5.45,1.67-.24-.26,2.28-.1,3.12.7.55,1.62-.83,2.32-1.06,1.81.61-1,1.7-1.53,2.29.05,1.18,3.67.21,3,1.68-2.83-.35-8.54-1.34-7.12,3.42,1.71,2.49,4.82.67,6.9,1.2.36,1.61-4.43.89-1.29,2.45.91,1.59-1.34.41-2,.28-.57.62.52,1.78.36,2.59-1.4,2-1.85-6.39-5.16-5.35-5.53,2.15,3.27,6.89.4,7.42-3.14-3.52-1.32-1.19-2.59.63-1.4-1.23.21-3.35-2.5-.62C25.57,39.8,35.68,36.23,28.88,31.9ZM32.19,29c-1.21-.21-2.51,1.25-1.23,2.1C32.6,32.29,34.33,29.41,32.19,29Z"/>
</svg>
