<svg xmlns="http://www.w3.org/2000/svg" viewBox="0 0 64 64">
  <path class="current-color" d="M30.43,29c6.1.52,12.19-.13,18.23-.56a.7.7,0,0,1,.48.85c-6.3,4.55-21.21-.53-29.41,1.83-4.12-4,8.64-1.67,10.7-2.14ZM16.3,33.77C7,36.05,43.84,36.72,43.83,35.08c.35-.88-.36-1.38-1.1-1.17C34,34.33,25.11,34,16.3,33.77Zm24.47,4.81c-2.37.48-19.28-1.64-16.57,1.79C25.35,40.68,44.61,41.46,40.77,38.58ZM19.33,23.9c-3.51-.46-3.48,2.05-.11,1.71,5.18-1,12.53,2.08,16.74-.7C35.31,22.91,21.94,24.63,19.33,23.9ZM38.6,19.68c-3.22.48-17.06-1.6-17.58.75C21.79,21.31,42.89,22.48,38.6,19.68Z"/>
</svg>
